<?xml version="1.0" encoding="utf-8"?>
<!-- Generator: Adobe Illustrator 24.2.3, SVG Export Plug-In . SVG Version: 6.00 Build 0)  -->
<svg version="1.1" id="Layer_1" xmlns="http://www.w3.org/2000/svg" xmlns:xlink="http://www.w3.org/1999/xlink" x="0px" y="0px"
	 viewBox="0 0 141.7 141.7" style="enable-background:new 0 0 141.7 141.7;" xml:space="preserve">
<style type="text/css">
	.st0{fill:#030303;}
	.st1{fill:#C5D8EA;}
	.st2{fill:#1B1B1B;}
	.st3{fill:#070808;}
	.st4{fill:#FFFFFF;}
	.st5{fill:#292B2C;}
	.st6{fill:#050505;}
	.st7{fill:#020202;}
	.st8{fill:#E3EDF5;}
	.st9{fill:#DE1F26;}
	.st10{fill:#A21D21;}
	.st11{fill:#060707;}
	.st12{fill:#060607;}
	.st13{fill:#E0E9F1;}
	.st14{fill:#080809;}
	.st15{fill:#F6F5EF;}
	.st16{fill:#7D8D9B;}
	.st17{fill:#E1E0CF;}
	.st18{fill:#26313E;}
	.st19{fill:#09080A;}
	.st20{fill:#0B0B0C;}
	.st21{fill:#040906;}
	.st22{fill:#0B0B04;}
	.st23{fill:#4B616B;}
	.st24{fill:#556F7B;}
	.st25{fill:#546E7A;}
	.st26{fill:#617D8C;}
	.st27{fill:#CED1D2;}
	.st28{fill:#EDEFF0;}
	.st29{fill:#090708;}
	.st30{fill:#BAE3ED;}
	.st31{fill:#62A8B7;}
	.st32{fill:#6FC2D5;}
	.st33{fill:#0A0B07;}
	.st34{fill:#0D0505;}
	.st35{fill:#7CCDDC;}
	.st36{fill:#F1DA44;}
	.st37{fill:#EFD944;}
	.st38{fill:none;stroke:#090708;stroke-width:2.8346;stroke-miterlimit:10;}
</style>
<path class="st14" d="M106.5,122.5c-26.8,0-53.6,0-80.4,0c-0.1-0.4-0.5-0.3-0.8-0.4c-3.8-1.2-6.1-4.4-6.1-8.3c0-3.7,0-7.5,0-11.2
	c0-0.7,0.2-0.8,0.8-0.8c2.2,0,4.5,0,6.8,0c0.8,0,1-0.2,1-1c-0.1-2.9,0-5.7,0-8.6c0-14.8,0-29.6,0-44.4c0-0.8-0.2-1-1-1
	c-2.3,0.1-4.6,0-6.9,0c-0.5,0-0.8-0.1-0.8-0.7c0-6.4,0-12.9,0-19.3c0-0.6,0.2-0.7,0.8-0.7c1.2,0,2.4,0,3.6,0c0.7,0,0.8-0.2,0.8-0.8
	c0-1.6,0-3.2,0-4.8c0-1,0.2-1.3,1.2-1.3c27.2,0,54.3,0,81.5,0c3.1,0,6.2,0,9.4,0c0.7,0,0.9,0.2,0.9,0.9c0,1.7,0,3.4,0,5
	c0,0.7,0.1,1,0.9,1c1.4-0.1,2.8,0,4.2,0c0,6.9,0,13.8,0,20.8c-2.5,0-5,0-7.6-0.1c-0.8,0-1,0.2-1,1.1c0,12.1,0,24.1,0,36.2
	c0,9.7,0,19.5,0,29.2c0,3.3-1.2,5.9-3.9,7.8C108.9,121.8,107.7,122.1,106.5,122.5z M31.4,92.4c0.3-0.2,0.4-0.3,0.5-0.3
	c3.5-2.6,7.3-3.1,11.1-1.1c3.9,2,5.7,5.4,5.5,9.7c0,1,0.2,1.2,1.1,1.2c16.5,0,33,0,49.5,0c0.8,0,1.1,0.2,1,1
	c-0.1,3.7-0.1,7.4,0,11.1c0,2.8,2.4,5.1,5.2,5.1c2.8,0,5.1-2.2,5.1-5.1c0-1.3-0.1-2.7,0-4c0.1-0.9-0.2-1.2-1.1-1.3
	c-3.4-0.5-5.9-3.5-5.8-6.9c0.1-3.4,2.6-6.2,6.1-6.7c0.6-0.1,0.8-0.3,0.8-0.9c0-4.1,0-8.2,0-12.3c0-0.6-0.2-0.8-0.8-1
	c-4.7-1.2-7.8-5.2-7.8-10c0-4.7,3.1-8.7,7.7-10c0.7-0.2,0.9-0.4,0.9-1.1c0-4,0-8,0-12c0-0.9-0.2-1-1.1-1c-25.7,0-51.3,0-77,0
	c-0.8,0-1.1,0.1-1.1,1c0,9.8,0,19.5,0,29.3C31.4,82.2,31.4,87.2,31.4,92.4z M70.9,29.6c-15.7,0-31.4,0-47.1,0
	c-0.9,0-1.1,0.2-1.1,1.1c0.1,3.9,0.1,7.7,0,11.6c0,0.9,0.3,1.1,1.1,1.1c6.6,0,13.3,0,19.9,0c24.7,0,49.4,0,74.2,0
	c0.8,0,1.1-0.1,1.1-1.1c-0.1-3.8-0.1-7.7,0-11.5c0-1-0.3-1.2-1.2-1.2C102.2,29.6,86.5,29.6,70.9,29.6z M89,119c3.1,0,6.2,0,9.4,0
	c-1.5-2.1-1.8-4.3-1.7-6.7c0.1-2.1,0-4.2,0-6.3c0-0.5-0.1-0.7-0.7-0.7c-8.8,0-17.6,0-26.4,0c-0.5,0-0.7,0.1-0.8,0.6
	c-1.2,3.8-4.4,6.2-8.2,6.2c-3.8,0-7-2.4-8.3-6.2c-0.1-0.4-0.3-0.7-0.8-0.7c-9.4,0-18.7,0-28.1,0c-0.5,0-0.7,0.1-0.7,0.7
	c0,2.7,0,5.4,0,8.1c0.1,2.6,2,4.6,4.5,5c0.5,0.1,0.8,0,0.9-0.6c1.1-4.7,5.2-8,9.9-8c4.7-0.1,8.8,3.1,10,7.7c0.2,0.7,0.5,0.9,1.2,0.9
	c8.9,0,17.8,0,26.7,0c0.3,0,0.6,0,0.9,0c-1.9-4.2-0.3-7.2,1.7-8.8c2.4-1.9,5.9-2,8.3-0.2C89.7,112.1,90.4,115.1,89,119z M70.9,26.1
	c13.6,0,27.3,0,40.9,0c2,0,2,0,2-2c0-1.4,0-1.4-1.4-1.4c-27.4,0-54.9,0-82.3,0c-2.2,0-2.1,0-2.2,2.2c0,1,0.2,1.3,1.3,1.3
	C43.1,26.1,57,26.1,70.9,26.1z M38.2,101.9c1.8,0,3.7-0.1,5.5,0c1,0.1,1.3-0.4,1.3-1.2c0.1-2.9-1-5.1-3.5-6.5
	c-2.4-1.4-4.9-1.3-7.2,0.3c-2.4,1.6-3.2,3.9-3,6.7c0.1,0.6,0.3,0.8,0.9,0.8C34.3,101.8,36.2,101.9,38.2,101.9z M44.8,119
	c-0.5-2.8-3.2-5-6.4-5.2c-2.8-0.1-6,2.1-6.7,4.7c-0.1,0.5,0.1,0.5,0.4,0.5c0.9,0,1.9,0,2.8,0C38.2,119,41.5,119,44.8,119z
	 M110.4,77.5c0-2.3,0-4.4,0-6.6c0-2.2,0-4.4,0-6.6c-3.1,0.9-5.1,3.4-5.1,6.5C105.3,74,107.2,76.6,110.4,77.5z M82.9,112.2
	c-2,0-3.4,1.4-3.4,3.4c0,1.9,1.5,3.5,3.4,3.4c1.8,0,3.4-1.6,3.4-3.4C86.4,113.8,84.8,112.2,82.9,112.2z M55.8,105.4
	c0.8,2.1,2.9,3.5,4.9,3.4c2.2-0.1,4.1-1.6,4.5-3.4C62.1,105.4,59,105.4,55.8,105.4z M110.4,101.9c0-0.9-0.1-1.8,0-2.7
	c0.1-0.8-0.3-0.8-0.9-0.7c-1.4,0.3-2.6,1.9-2.6,3.4c0.1,1.6,1.3,3,2.9,3.3c0.5,0.1,0.6-0.1,0.6-0.5
	C110.4,103.8,110.4,102.9,110.4,101.9z"/>
<path class="st15" d="M31.4,92.4c0-5.2,0-10.2,0-15.2c0-9.8,0-19.5,0-29.3c0-0.9,0.2-1,1.1-1c25.7,0,51.3,0,77,0
	c0.8,0,1.1,0.2,1.1,1c-0.1,4,0,8,0,12c0,0.7-0.2,0.9-0.9,1.1c-4.6,1.2-7.7,5.2-7.7,10c0,4.8,3.1,8.8,7.8,10c0.6,0.2,0.8,0.4,0.8,1
	c0,4.1,0,8.2,0,12.3c0,0.6-0.2,0.8-0.8,0.9c-3.5,0.4-6,3.2-6.1,6.7c-0.1,3.4,2.4,6.4,5.8,6.9c0.9,0.1,1.1,0.4,1.1,1.3
	c-0.1,1.3,0,2.7,0,4c0,2.9-2.3,5.1-5.1,5.1c-2.8,0-5.1-2.3-5.2-5.1c0-3.7,0-7.4,0-11.1c0-0.8-0.2-1-1-1c-16.5,0-33,0-49.5,0
	c-1,0-1.2-0.2-1.1-1.2c0.2-4.3-1.7-7.7-5.5-9.7c-3.9-2-7.6-1.5-11.1,1.1C31.7,92.1,31.6,92.2,31.4,92.4z M43.4,50.3
	c-4.8,0-8.6,3.8-8.6,8.5c0,4.8,3.8,8.7,8.5,8.7c4.7,0,8.6-3.8,8.6-8.5C52,54.1,48.2,50.3,43.4,50.3z M77.7,89.9
	c0-4.8-3.8-8.7-8.6-8.7c-4.7,0-8.6,3.8-8.6,8.5c0,4.8,3.8,8.7,8.5,8.7C73.8,98.4,77.7,94.6,77.7,89.9z M89.7,65.7
	c3.8,0,6.9-3,6.9-6.7c0-3.8-3-7-6.8-7c-3.8,0-6.9,3-6.9,6.8C82.9,62.6,85.9,65.7,89.7,65.7z M53.7,70.8c0,3.8,3,6.9,6.7,6.9
	c3.8,0,7-3,7-6.8c0-3.8-3-6.9-6.8-6.9C56.7,64,53.7,67,53.7,70.8z M86.4,89.8c0,3.8,3,6.9,6.8,6.9c3.8,0,6.9-3,6.9-6.8
	c0-3.9-3-6.9-6.8-6.9C89.4,82.9,86.4,85.9,86.4,89.8z M70.8,50.3c-2.9,0-5.2,2.4-5.1,5.2c0.1,2.8,2.4,5.1,5.2,5.1
	c2.8,0,5.2-2.4,5.2-5.2C76.1,52.6,73.7,50.2,70.8,50.3z M45.1,84.6c2.9,0,5.2-2.4,5.2-5.2c-0.1-2.8-2.4-5.1-5.2-5.1
	c-2.8,0-5.2,2.3-5.2,5.2C39.9,82.3,42.2,84.6,45.1,84.6z M76.1,74.2c-0.1,2.9,2.1,5.2,5,5.3c2.8,0.1,5.2-2.3,5.3-5.1
	c0.1-2.8-2.2-5.2-5.1-5.3C78.5,69.1,76.1,71.3,76.1,74.2z"/>
<path class="st16" d="M70.9,29.6c15.7,0,31.3,0,47,0c0.9,0,1.3,0.2,1.2,1.2c-0.1,3.8-0.1,7.7,0,11.5c0,0.9-0.3,1.1-1.1,1.1
	c-24.7,0-49.4,0-74.2,0c-6.6,0-13.3,0-19.9,0c-0.8,0-1.1-0.1-1.1-1.1c0.1-3.9,0.1-7.7,0-11.6c0-0.9,0.3-1.1,1.1-1.1
	C39.5,29.6,55.2,29.6,70.9,29.6z M107.1,36.5c2,0,4.1,0,6.1,0c2.4,0,2.4,0,2.4-2.5c0-0.8-0.2-1-1-1c-4.6,0-9.2,0-13.8,0
	c-2.6,0-2.5,0-2.5,2.6c0,0.6,0.2,0.9,0.9,0.9C101.8,36.4,104.4,36.5,107.1,36.5z M26.1,34.8c0,1.7,0,1.7,1.7,1.7
	c1.8,0,1.8,0,1.8-1.8c0-1.7,0-1.7-1.7-1.7C26.1,33,26.1,33,26.1,34.8z"/>
<path class="st17" d="M89,119c1.4-3.9,0.8-6.9-2-9c-2.4-1.8-5.9-1.7-8.3,0.2c-2,1.6-3.6,4.7-1.7,8.8c-0.3,0-0.6,0-0.9,0
	c-8.9,0-17.8,0-26.7,0c-0.7,0-1-0.2-1.2-0.9c-1.2-4.7-5.4-7.8-10-7.7c-4.7,0.1-8.8,3.3-9.9,8c-0.1,0.6-0.4,0.7-0.9,0.6
	c-2.5-0.4-4.5-2.4-4.5-5c-0.1-2.7,0-5.4,0-8.1c0-0.5,0.2-0.7,0.7-0.7c9.4,0,18.7,0,28.1,0c0.5,0,0.7,0.2,0.8,0.7
	c1.3,3.9,4.5,6.3,8.3,6.2c3.8,0,7.1-2.5,8.2-6.2c0.2-0.5,0.3-0.6,0.8-0.6c8.8,0,17.6,0,26.4,0c0.5,0,0.7,0.1,0.7,0.7
	c0,2.1,0,4.2,0,6.3c-0.1,2.4,0.2,4.6,1.7,6.7C95.1,119,92.1,119,89,119z"/>
<path class="st18" d="M70.9,26.1c-13.9,0-27.8,0-41.7,0c-1,0-1.3-0.3-1.3-1.3c0.1-2.2,0-2.2,2.2-2.2c27.4,0,54.9,0,82.3,0
	c1.4,0,1.4,0,1.4,1.4c0,2,0,2-2,2C98.2,26.1,84.5,26.1,70.9,26.1z"/>
<path class="st9" d="M38.2,101.9c-2,0-4,0-5.9,0c-0.6,0-0.9-0.2-0.9-0.8c-0.2-2.8,0.6-5.1,3-6.7c2.3-1.5,4.8-1.7,7.2-0.3
	c2.5,1.4,3.6,3.7,3.5,6.5c0,0.8-0.3,1.3-1.3,1.2C41.9,101.8,40.1,101.9,38.2,101.9z"/>
<path class="st10" d="M44.8,119c-3.3,0-6.6,0-9.8,0c-0.9,0-1.9,0-2.8,0c-0.3,0-0.5,0-0.4-0.5c0.7-2.6,3.9-4.8,6.7-4.7
	C41.5,114,44.2,116.2,44.8,119z"/>
<path class="st9" d="M110.4,77.5c-3.2-0.9-5.1-3.5-5.1-6.7c0-3.1,2-5.6,5.1-6.5c0,2.2,0,4.4,0,6.6C110.4,73.1,110.4,75.2,110.4,77.5
	z"/>
<path class="st10" d="M82.9,112.2c1.9,0,3.5,1.6,3.4,3.5c0,1.8-1.6,3.4-3.4,3.4c-1.9,0-3.4-1.5-3.4-3.4
	C79.5,113.6,81,112.2,82.9,112.2z"/>
<path class="st10" d="M55.8,105.4c3.2,0,6.3,0,9.4,0c-0.4,1.8-2.4,3.2-4.5,3.4C58.7,108.9,56.6,107.4,55.8,105.4z"/>
<path class="st9" d="M110.4,101.9c0,0.9,0,1.9,0,2.8c0,0.4-0.1,0.6-0.6,0.5c-1.6-0.3-2.8-1.6-2.9-3.3c-0.1-1.5,1.1-3.1,2.6-3.4
	c0.6-0.1,0.9-0.1,0.9,0.7C110.3,100.1,110.4,101,110.4,101.9z"/>
<path class="st14" d="M43.4,50.3c4.8,0,8.6,3.8,8.6,8.7c0,4.7-3.9,8.5-8.6,8.5c-4.7,0-8.6-3.9-8.5-8.7C34.8,54,38.6,50.2,43.4,50.3z
	 M38.2,58.8c0,2.8,2.3,5.2,5.2,5.2c2.8,0,5.1-2.4,5.1-5.2c0-2.8-2.3-5.1-5.1-5.1C40.5,53.7,38.2,55.9,38.2,58.8z"/>
<path class="st19" d="M77.7,89.9c0,4.7-3.9,8.6-8.6,8.5c-4.8,0-8.6-3.9-8.5-8.7c0-4.7,3.9-8.6,8.6-8.5
	C73.9,81.2,77.8,85.1,77.7,89.9z M69,94.9c2.8,0.1,5.2-2.1,5.3-4.8c0.1-3-2.1-5.4-5-5.5c-2.7-0.1-5.2,2.2-5.2,4.9
	C64,92.5,66.1,94.8,69,94.9z"/>
<path class="st19" d="M89.7,65.7c-3.8,0-6.8-3.1-6.8-6.9c0-3.8,3.1-6.9,6.9-6.8c3.8,0,6.8,3.2,6.8,7C96.6,62.7,93.5,65.7,89.7,65.7z
	 M89.8,62.2c1.9,0,3.5-1.5,3.4-3.4c0-1.8-1.6-3.4-3.4-3.4c-1.9,0-3.4,1.6-3.4,3.4C86.4,60.8,87.8,62.2,89.8,62.2z"/>
<path class="st14" d="M53.7,70.8c0-3.8,3-6.8,6.9-6.8c3.8,0,6.9,3.1,6.8,6.9c0,3.8-3.2,6.8-7,6.8C56.7,77.7,53.7,74.7,53.7,70.8z
	 M60.6,67.5c-1.9,0-3.4,1.5-3.4,3.4c0,2,1.5,3.4,3.4,3.4c1.8,0,3.4-1.5,3.4-3.4C64.1,69.1,62.5,67.5,60.6,67.5z"/>
<path class="st19" d="M86.4,89.8c0-3.8,3.1-6.8,6.9-6.8c3.8,0,6.8,3.1,6.8,6.9c0,3.7-3.1,6.8-6.9,6.8C89.4,96.7,86.4,93.6,86.4,89.8
	z M93.2,86.4c-1.9,0-3.4,1.5-3.4,3.4c0,1.9,1.5,3.4,3.4,3.5c1.9,0,3.4-1.6,3.4-3.4C96.7,87.9,95.2,86.4,93.2,86.4z"/>
<path class="st20" d="M70.8,50.3c2.9,0,5.2,2.3,5.2,5.1c0,2.8-2.4,5.2-5.2,5.2c-2.8,0-5.1-2.3-5.2-5.1C65.6,52.7,68,50.3,70.8,50.3z
	 M70.9,57.1c0.9,0,1.7-0.9,1.7-1.8c0-1-0.8-1.7-1.8-1.6c-0.9,0-1.6,0.8-1.6,1.7C69.2,56.4,70,57.2,70.9,57.1z"/>
<path class="st20" d="M45.1,84.6c-2.9,0-5.2-2.3-5.2-5.1c0-2.8,2.4-5.2,5.2-5.2c2.8,0,5.1,2.3,5.2,5.1C50.3,82.2,48,84.6,45.1,84.6z
	 M45.1,81.2c1,0,1.7-0.8,1.7-1.7c0-0.9-0.8-1.7-1.7-1.7c-0.9,0-1.7,0.8-1.7,1.7C43.4,80.4,44.1,81.2,45.1,81.2z"/>
<path class="st20" d="M76.1,74.2c0.1-2.8,2.4-5.1,5.2-5c2.9,0.1,5.2,2.5,5.1,5.3c-0.1,2.8-2.5,5.2-5.3,5.1
	C78.2,79.4,76,77,76.1,74.2z M79.5,74.3c0,1,0.8,1.7,1.7,1.7c0.9,0,1.7-0.9,1.7-1.8c0-0.9-0.8-1.6-1.7-1.6
	C80.2,72.6,79.5,73.3,79.5,74.3z"/>
<path class="st21" d="M107.1,36.5c-2.6,0-5.2,0-7.8,0c-0.7,0-0.8-0.2-0.9-0.9c0-2.6-0.1-2.6,2.5-2.6c4.6,0,9.2,0,13.8,0
	c0.8,0,1,0.2,1,1c0,2.5,0,2.5-2.4,2.5C111.1,36.5,109.1,36.5,107.1,36.5z"/>
<path class="st22" d="M26.1,34.8c0-1.8,0-1.8,1.8-1.8c1.7,0,1.7,0,1.7,1.7c0,1.8,0,1.8-1.8,1.8C26.1,36.5,26.1,36.5,26.1,34.8z"/>
<path class="st9" d="M38.2,58.8c0-2.9,2.3-5.1,5.2-5.1c2.9,0,5.1,2.2,5.1,5.1c0,2.8-2.3,5.2-5.1,5.2C40.6,64,38.2,61.7,38.2,58.8z"
	/>
<path class="st9" d="M69,94.9c-2.9-0.1-5.1-2.4-5-5.4c0.1-2.7,2.5-5,5.2-4.9c2.9,0.1,5.2,2.5,5,5.5C74.2,92.8,71.8,95,69,94.9z"/>
<path class="st9" d="M89.8,62.2c-2,0-3.4-1.5-3.4-3.4c0-1.9,1.6-3.5,3.4-3.4c1.8,0,3.4,1.6,3.4,3.4C93.3,60.7,91.7,62.2,89.8,62.2z"
	/>
<path class="st9" d="M60.6,67.5c1.9,0,3.5,1.6,3.4,3.5c0,1.8-1.6,3.4-3.4,3.4c-1.9,0-3.4-1.5-3.4-3.4C57.2,68.9,58.6,67.4,60.6,67.5
	z"/>
<path class="st9" d="M93.2,86.4c1.9,0,3.4,1.5,3.4,3.4c0,1.9-1.6,3.4-3.4,3.4c-1.9,0-3.4-1.6-3.4-3.5C89.8,87.9,91.3,86.4,93.2,86.4
	z"/>
<path class="st9" d="M70.9,57.1c-0.9,0-1.7-0.8-1.7-1.7c0-0.9,0.7-1.7,1.6-1.7c1,0,1.8,0.6,1.8,1.6C72.6,56.3,71.8,57.1,70.9,57.1z"
	/>
<path class="st9" d="M45.1,81.2c-1,0-1.7-0.7-1.7-1.7c0-0.9,0.8-1.7,1.7-1.7c0.9,0,1.6,0.8,1.7,1.7C46.8,80.4,46.1,81.2,45.1,81.2z"
	/>
<path class="st9" d="M79.5,74.3c0-1,0.7-1.7,1.7-1.7c0.9,0,1.7,0.7,1.7,1.6c0,0.9-0.8,1.7-1.7,1.8C80.3,76.1,79.5,75.3,79.5,74.3z"
	/>
</svg>
