<?xml version="1.0" encoding="utf-8"?>
<!-- Generator: Adobe Illustrator 24.2.3, SVG Export Plug-In . SVG Version: 6.00 Build 0)  -->
<svg version="1.1" id="Layer_1" xmlns="http://www.w3.org/2000/svg" xmlns:xlink="http://www.w3.org/1999/xlink" x="0px" y="0px"
	 viewBox="0 0 141.7 141.7" style="enable-background:new 0 0 141.7 141.7;" xml:space="preserve">
<style type="text/css">
	.st0{fill:#030303;}
	.st1{fill:#C5D8EA;}
	.st2{fill:#1B1B1B;}
	.st3{fill:#070808;}
	.st4{fill:#FFFFFF;}
	.st5{fill:#292B2C;}
	.st6{fill:#050505;}
	.st7{fill:#020202;}
	.st8{fill:#E3EDF5;}
	.st9{fill:#DE1F26;}
	.st10{fill:#A21D21;}
	.st11{fill:#060707;}
	.st12{fill:#060607;}
	.st13{fill:#E0E9F1;}
	.st14{fill:#080809;}
	.st15{fill:#F6F5EF;}
	.st16{fill:#7D8D9B;}
	.st17{fill:#E1E0CF;}
	.st18{fill:#26313E;}
	.st19{fill:#09080A;}
	.st20{fill:#0B0B0C;}
	.st21{fill:#040906;}
	.st22{fill:#0B0B04;}
	.st23{fill:#4B616B;}
	.st24{fill:#556F7B;}
	.st25{fill:#546E7A;}
	.st26{fill:#617D8C;}
	.st27{fill:#CED1D2;}
	.st28{fill:#EDEFF0;}
	.st29{fill:#090708;}
	.st30{fill:#BAE3ED;}
	.st31{fill:#62A8B7;}
	.st32{fill:#6FC2D5;}
	.st33{fill:#0A0B07;}
	.st34{fill:#0D0505;}
	.st35{fill:#7CCDDC;}
	.st36{fill:#F1DA44;}
	.st37{fill:#EFD944;}
	.st38{fill:none;stroke:#090708;stroke-width:2.8346;stroke-miterlimit:10;}
</style>
<path class="st29" d="M130.1,45.7c-0.6,0.6-1.1,1.3-1.7,1.9c-4.7,4.7-9.4,9.4-14.1,14.1c-1.9,1.9-2.8,1.9-4.7,0
	c-1.9-1.9-3.9-3.9-6-6c0,0.7,0,1.1,0,1.6c0,3.4,0,6.8,0,10.2c0,0.7,0,1,0.9,0.8c6.6-1.1,12.9,3.7,13.6,10.4c0.1,0.9,0.4,1.2,1.3,1.1
	c0.9-0.1,1.8,0,2.7,0c1.4,0,2.4,0.8,2.5,2.2c0.3,2.4,0.5,4.7,0.7,7.1c0.5,5.8,1,11.6,1.5,17.4c0.4,5.1,0.9,10.3,1.3,15.4
	c0.1,1.8-1,3-2.9,3c-12.6,0-25.3,0-37.9,0c-1.9,0-3.1-1.4-2.9-3.2c0.1-1,0.2-2.1,0.3-3.1c0.1-0.6-0.1-0.7-0.6-0.6
	c-1.7,0-3.5,0-5.2,0c-0.5,0-0.7,0.2-0.9,0.7c-0.7,2.2-2.3,3.5-4.5,4c-11.5,2.5-23.2,3.5-35,2.9c-7.3-0.4-14.5-1.3-21.7-2.8
	c-2.5-0.5-4.2-1.8-4.9-4.3c-0.7-2.4,0.1-4.5,1.9-6.1c1.7-1.5,3.4-3,5.1-4.5c0.5-0.4,0.7-0.8,0.7-1.5c0-3,0-6.1,0-9.1
	c0.1-8.8,6.5-16.1,15.2-17.2c0.6-0.1,1.2-0.1,1.7-0.1c1.7,0,1.7,0,1.7-1.7c0-7.3,0-14.6,0-21.9c-0.4-0.2-0.6,0.2-0.7,0.4
	c-1.9,1.8-3.7,3.7-5.6,5.6c-1.5,1.5-2.7,1.5-4.2,0c-5-5-10-10-15-15c-1.5-1.5-1.5-2.6,0-4.1c6.2-6.2,12.4-12.4,18.5-18.5
	c5.4-5.4,11.9-8,19.5-8c13.4,0,26.8,0,40.2,0c7.6,0,14.1,2.6,19.5,8c6.2,6.1,12.3,12.3,18.5,18.5c0.4,0.4,0.7,0.9,1.1,1.3
	C130.1,44.6,130.1,45.1,130.1,45.7z M23.3,95.6c0,0.1-0.1,0.2-0.1,0.3c0,3.3,0,6.6,0,9.9c0,0.1,0.1,0.2,0.2,0.3
	c0.2,0,0.5,0.1,0.7,0.1c0.3,0.1,0.6,0.3,0.9,0.2c0.7,0.2,1,0,1-0.8c0-2.3,0-4.7,0-7c0-4.7,1-9.1,3.8-13.1c0.1-0.1,0.1-0.2-0.1-0.3
	C25.9,87.7,23.6,91,23.3,95.6z M60.1,27.3c1-0.7,1.9-0.5,2.8,0.3c7.2,5.9,18,2.3,20.2-6.7c0.2-0.8,0.1-1.1-0.9-1.1
	c-7.5,0-15.1,0-22.6,0c-1,0-1.1,0.4-0.8,1.1c0.4,1.2,0.2,2.1-1,2.7c-1.7,0.1-2.2-0.4-2.5-2.8c-0.2-1.1-0.5-1.3-1.9-1
	c-1,0.2-0.3,0.8-0.4,1.3c0,0.1,0,0.3,0.1,0.4C55.2,31.6,64.2,37.7,74.4,36c7.3-1.2,13.6-7.8,14.5-15c0-0.4,0.6-1.2-0.4-1.2
	c-0.7,0-1.6-0.5-1.8,0.9c-2.2,12.4-16.5,17.6-26.1,9.5C59.4,29.3,59.3,28.7,60.1,27.3z M59.6,91.9c0-0.1-0.1-0.3-0.1-0.4
	c0-0.1-0.1-0.2-0.1-0.3c-0.4-1.6-1.3-2.9-2.3-4.2c-2-2.5-4.4-3.9-7.7-3.8c-3,0.1-6.1,0-9.1,0c-2,0-3.8,0.6-5.3,1.8
	c-3.8,3.2-5.3,7.4-5.4,12.2c-0.3,3.1-0.1,6.3-0.1,9.4c0,0.5,0.2,0.6,0.6,0.6c1.1,0.1,2.1,0.3,3.2,0.4c1.3,0.1,1.9,0.7,2,1.9
	c-0.5,1.4-1.1,1.8-2.6,1.5c-3.3-0.5-6.7-0.9-10-1.4c-0.4-0.1-0.6,0-0.9,0.2c-1.8,1.6-3.7,3.2-5.5,4.9c-0.8,0.8-1.1,1.7-0.6,2.8
	c0.3,0.8,1,1.2,1.8,1.4c8.1,1.8,16.3,2.7,24.6,2.9c10.3,0.2,20.6-0.7,30.7-2.9c1.1-0.2,1.9-0.7,2.2-1.8c0.3-1.1-0.1-1.9-1-2.6
	c-1.5-1.3-3.1-2.6-4.6-4.1c-0.9-0.9-1.8-1.1-2.9-0.6c-0.5,0-0.9,0-1.4,0.1c-7.7,1.3-15.4,1.8-23.2,1.6c-1.2,0-1.7-0.5-1.9-1.8
	c0.2-1.2,1-1.7,2.2-1.7c5.9,0.1,11.8-0.1,17.7-0.9c0.8-0.1,0.9-0.4,0.9-1.1c0-2.7,0-5.3,0-8C60.6,96,60.5,93.9,59.6,91.9z
	 M88.3,118.2c-0.1,0.5-0.1,1.1-0.2,1.6c-0.2,1.4-0.2,1.4,1.3,1.4c10.7,0,21.5,0,32.2,0c0.8,0,1.5,0,2.3,0c0.5,0,0.7-0.1,0.6-0.6
	c-0.3-3.5-0.6-7-0.9-10.6c-0.4-4.8-0.9-9.6-1.3-14.5c-0.3-3.9-0.7-7.7-1-11.6c0-0.6-0.3-0.9-0.9-0.8c-2.1,0-4.2,0-6.2,0.1
	c-7.4,0-14.8,0-22.2,0c-0.4,0-0.7,0.1-0.7,0.6c-0.2,2.6-0.5,5.1-0.7,7.7c-0.1,1.6-0.5,2-2,2.3c-1.1-0.4-1.6-1.2-1.4-2.4
	c0.1-0.9,0.2-1.9,0.2-2.9c0.2-2,0.3-4.1,0.5-6.1c0.2-1.9,1.2-2.7,3.1-2.7c0.6,0,1.1,0,1.7,0c1,0.2,1.7,0.2,1.8-1.2
	c0.4-3.5,2.2-6.2,5-8.2c0.4-0.3,0.6-0.5,0.6-1c0-5,0-10-0.1-15c0-6.6,0-13.2,0-19.7c0-1.5,0.7-2.4,1.8-2.3c1.1,0,1.7,0.8,1.7,2.3
	c0,5.2,0,10.3,0,15.5c0,0.4-0.1,0.8,0.3,1.2c0.8,0.7,1.6,1.5,2.4,2.3c1.9,1.9,3.9,3.7,5.9,5.6c4.4-4.4,9-9,13.5-13.6
	c0.6-0.6,0.2-0.8-0.2-1.1c-6-6-11.9-11.9-17.9-17.9c-1.6-1.6-3.4-3-5.5-3.9c-2.3-1.3-4.8-2-7.4-2.4c-2-0.3-2-0.2-2.4,1.8
	c0,0.2-0.1,0.4-0.1,0.6c-1.8,9-9.1,15.9-18.3,17.3c-9,1.3-18.2-3.5-22.4-11.7c-1.1-2.2-1.9-4.5-2.2-7c-0.1-0.5,0.1-1.2-0.9-1
	c-4.8,0.5-9.3,2-12.9,5.3c-6.9,6.3-13.2,13.1-19.9,19.7c4.6,4.6,9.2,9.2,13.8,13.9c0.5,0.5,0.7,0.1,0.9-0.2c2.4-2.4,4.7-4.8,7.1-7.1
	c0.6-0.5,0.7-1,0.7-1.8c0-5.2,0-10.4,0-15.6c0-1.2,0.7-1.9,1.7-1.9c1,0,1.7,0.8,1.8,1.9c0,0.3,0,0.6,0,0.9c0,12.6,0,25.1,0,37.7
	c0,0.3,0,0.5,0,0.8c0,0.4,0,0.6,0.6,0.5c1.4-0.1,2.8-0.1,4.2-0.1c3.3,0,5.1,1.7,5.3,5c0,0.6,0.2,0.8,0.8,0.8c1.4-0.1,2.8,0,4.1,0.3
	c8.2,1.8,13.7,8.6,13.7,17c0,3,0,6,0,9c0,0.4-0.1,0.8,0.3,1.2c1.4,1.2,2.9,2.5,4.3,3.7c0.8,0.9,1.9,1.6,2.5,2.7
	c0.3,0.5,0.6,0.7,1.2,0.6c1.8,0,3.6-0.1,5.4,0c0.8,0,1-0.3,1.1-1c0.2-2.6,0.4-5.1,0.6-7.7c0.2-1.7,0.3-3.4,0.5-5.1
	c0.1-1.2,0.8-1.8,1.9-1.9c1.1,0.3,1.7,1,1.6,2.1c-0.2,2.9-0.5,5.7-0.8,8.6C88.7,112.2,88.5,115.2,88.3,118.2z M109.1,79.6
	c1.6,0,3.2-0.1,4.7,0c0.8,0,0.8-0.3,0.8-0.9c-0.6-4.7-5.9-8.3-10.4-6.9c-0.5,0.1-0.7,0.4-0.6,0.9c0,2,0,4.1,0,6.1
	c0,0.7,0.2,0.9,0.8,0.8C105.9,79.6,107.5,79.6,109.1,79.6z M60.4,85.2c3.2,4.7,4,9.9,3.8,15.3c0,1.7,0,3.4,0,5.1
	c0,0.3,0,0.7,0.1,0.7c0.8,0.2,1.5-0.1,2.3-0.2c0.6-0.1,0.4-0.6,0.4-0.9c0-2.8,0.1-5.6,0-8.4C66.8,91.8,64.6,87.9,60.4,85.2z
	 M45,79.6c0.9,0,1.8,0,2.6,0c0.2,0,0.6,0.1,0.6-0.3c0.1-0.7,0.1-1.6-0.8-1.8c-1.6-0.4-3.3-0.3-4.9,0c-0.9,0.2-0.9,1.1-0.8,1.8
	c0.1,0.7,0.8,0.3,1.1,0.3C43.6,79.7,44.3,79.6,45,79.6z M100,74.2c-1.2,1.4-1.8,2.8-2.2,4.3c-0.2,1,0.1,1.2,1,1.1
	c0.4-0.1,1.2,0.5,1.2-0.5C100,77.6,100,76.1,100,74.2z"/>
<path class="st8" d="M75,110.9c-1.4-1.2-2.8-2.5-4.3-3.7c-0.4-0.3-0.3-0.7-0.3-1.2c0-3,0-6,0-9c0-8.4-5.5-15.2-13.7-17
	c-1.4-0.3-2.7-0.4-4.1-0.3c-0.6,0-0.8-0.1-0.8-0.8c-0.1-3.3-1.9-5-5.3-5c-1.4,0-2.8,0-4.2,0.1c-0.5,0-0.6-0.1-0.6-0.5
	c0-0.3,0-0.5,0-0.8c0-12.6,0-25.1,0-37.7c0-0.3,0-0.6,0-0.9c-0.1-1.1-0.8-1.9-1.8-1.9c-1,0-1.7,0.8-1.7,1.9c0,5.2,0,10.4,0,15.6
	c0,0.7-0.2,1.2-0.7,1.8c-2.4,2.3-4.8,4.7-7.1,7.1c-0.3,0.3-0.4,0.7-0.9,0.2c-4.6-4.6-9.2-9.2-13.8-13.9c6.7-6.5,13-13.4,19.9-19.7
	c3.6-3.3,8-4.8,12.9-5.3c1-0.1,0.9,0.5,0.9,1c0.3,2.5,1,4.8,2.2,7c4.2,8.3,13.4,13.1,22.4,11.7c9.2-1.3,16.5-8.2,18.3-17.3
	c0-0.2,0.1-0.4,0.1-0.6c0.4-2,0.4-2.1,2.4-1.8c2.6,0.4,5.1,1.1,7.4,2.4c-0.1,0.6,0.4,0.9,0.7,1.2c2.5,2.7,5.3,5.1,7.7,7.9
	c3.2,3.7,4,7.9,2.7,12.5c-1.1,4-4.2,6.5-7,9.2c-0.8-0.8-1.6-1.6-2.4-2.3c-0.4-0.4-0.3-0.8-0.3-1.2c0-5.2,0-10.3,0-15.5
	c0-1.5-0.6-2.3-1.7-2.3c-1.1,0-1.8,0.8-1.8,2.3c0,6.6,0,13.2,0,19.7c-0.7-0.7-1.4-1.4-2.2-2.1c-0.9-0.9-2.2-1.2-3.3-0.7
	c-1.4,0.6-1.9,1.4-1.9,2.9c0,8.4,0,16.8,0,25.3c-0.6,0-1.1,0-1.7,0c-1.9,0-2.9,0.8-3.1,2.7c-0.2,2-0.4,4-0.5,6.1
	c-0.1,1-0.1,1.9-0.2,2.9c-0.2,1.2,0.3,2,1.4,2.4c-0.1,1.6-0.2,3.3-0.3,4.9c-1.2,0.1-1.8,0.7-1.9,1.9c-0.2,1.7-0.3,3.4-0.5,5.1
	c-1.1,0.9-2.2,1.8-3.4,2.5C80,109.4,77.7,110.6,75,110.9z M61.4,54.9C61.4,54.9,61.4,54.9,61.4,54.9c-0.9,0.1-1.8,0.1-2.8,0.1
	c-2.1,0-3.4,0.9-4,2.7c-0.5,1.6,0.1,3,1.7,4.3c1.6,1.1,3.1,2.3,4.7,3.4c0.5,0.4,0.7,0.7,0.4,1.3c-0.7,1.9-1.3,3.8-1.9,5.7
	c-0.6,1.8-0.1,3.4,1.2,4.3c1.4,1,3,1,4.6-0.1c1.5-1,3-2.1,4.4-3.2c0.9-0.7,1.5-0.7,2.3,0c1.5,1.2,3.1,2.3,4.7,3.4
	c1.4,1,2.9,0.9,4.2,0c1.3-0.9,1.8-2.5,1.3-4.1c-0.6-1.9-1.2-3.8-1.9-5.7c-0.3-0.8-0.1-1.3,0.6-1.8c1.5-1,3-2.1,4.5-3.2
	c1.6-1.2,2.2-2.7,1.6-4.3c-0.6-1.7-1.9-2.6-3.9-2.6c-2,0-3.9,0-5.9,0c-0.6,0-0.9-0.2-1-0.8c-0.6-2-1.3-3.9-1.9-5.9
	c-0.6-1.7-1.9-2.6-3.5-2.6c-1.6,0-2.9,1-3.4,2.6c-0.4,1-0.7,2-1,3c-0.4,1.2-0.5,2.8-1.3,3.4C64.2,55.3,62.6,54.9,61.4,54.9z"/>
<path class="st9" d="M88.2,98.6c0.1-1.6,0.2-3.3,0.3-4.9c1.6-0.3,1.9-0.7,2-2.3c0.2-2.6,0.5-5.1,0.7-7.7c0-0.5,0.3-0.6,0.7-0.6
	c7.4,0,14.8,0,22.2,0c0,0.5,0,0.9,0,1.4c0.4,3.9,0.8,7.8,1.1,11.7c-1.3,0-2.7,0-4,0c-0.6,0-0.9-0.2-1.1-0.8
	c-0.3-1.1-0.7-2.2-1.1-3.3c-0.5-1.3-1.6-2.1-2.8-2.1c-1.3,0-2.5,0.8-2.9,2.2c-0.4,1-0.7,2.1-1,3.2c-0.2,0.6-0.4,0.9-1.1,0.8
	c-1.1-0.1-2.2,0-3.2,0c-1.6,0-2.6,0.7-3.1,2.1c-0.4,1.3,0,2.5,1.2,3.4c0.9,0.7,1.8,1.3,2.7,2c0.4,0.3,0.6,0.6,0.4,1.1
	c-0.4,1.1-0.7,2.2-1.1,3.3c-0.4,1.4,0,2.6,1,3.4c1.1,0.8,2.4,0.8,3.7,0c0.9-0.6,1.8-1.2,2.6-1.9c0.6-0.5,1-0.5,1.6,0
	c0.9,0.8,1.9,1.4,2.9,2.1c1.1,0.7,2.2,0.6,3.3-0.1c1.1-0.7,1.5-1.8,1.2-3.1c-0.1-0.6-0.3-1.1-0.5-1.7c-0.9-2.8-0.9-2.8,1.6-4.4
	c0.1,0.2,0.2,0.3,0.2,0.5c0.3,1.8,0.2,3.6,0.6,5.4c0.9,5-3,9.9-8,9.9c-6.7,0-13.3,0-20,0c0.2-3,0.5-6,0.7-9c0.2-2.9,0.5-5.7,0.8-8.6
	C89.9,99.5,89.3,98.8,88.2,98.6z"/>
<path class="st9" d="M39.9,109.7c0.2,1.3,0.7,1.8,1.9,1.8c7.8,0.2,15.5-0.3,23.2-1.6c0.5-0.1,0.9-0.1,1.4-0.1c0.6,0,0.6,0.5,0.8,0.9
	c0.7,2.3-0.6,4.6-3,5.2c-3.5,0.8-7,1.4-10.6,1.9c-3.7,0.6-7.5,0.9-11.3,1c-2.8,0.1-5.6,0.2-8.5,0.1c-2.7-0.1-5.5,0.1-8.2-0.3
	c-1.2-0.2-2.4-0.1-3.7-0.3c-2.1-0.4-4.3-0.5-6.5-0.8c-0.6-1.1-0.3-2,0.6-2.8c1.8-1.7,3.7-3.3,5.5-4.9c0.3-0.3,0.6-0.3,0.9-0.2
	c3.3,0.5,6.7,0.9,10,1.4c1.5,0.2,2.1-0.1,2.6-1.5C36.8,109.5,38.3,109.6,39.9,109.7z"/>
<path class="st10" d="M115.3,96.3c-0.4-3.9-0.8-7.8-1.1-11.7c0-0.5,0-0.9,0-1.4c2.1,0,4.2,0,6.2-0.1c0.6,0,0.9,0.2,0.9,0.8
	c0.3,3.9,0.6,7.7,1,11.6c0.4,4.8,0.9,9.6,1.3,14.5c0.3,3.5,0.6,7,0.9,10.6c0.1,0.6-0.2,0.7-0.6,0.6c-0.8,0-1.5,0-2.3,0
	c-10.7,0-21.5,0-32.2,0c-1.4,0-1.4,0-1.3-1.4c0.1-0.5,0.1-1.1,0.2-1.6c6.7,0,13.3,0,20,0c5.1,0,9-4.9,8-9.9
	c-0.3-1.8-0.2-3.6-0.6-5.4c0-0.2-0.2-0.3-0.2-0.5c0.1-0.1,0.3-0.3,0.4-0.4C118.6,100.2,118.3,97.6,115.3,96.3z"/>
<path class="st8" d="M29.5,97.1c0.1-4.8,1.6-9,5.4-12.2c1.5-1.3,3.3-1.9,5.3-1.8c3,0,6.1,0.1,9.1,0c3.3-0.1,5.8,1.3,7.7,3.8
	c1,1.3,1.8,2.6,2.3,4.2c0,0.1,0.1,0.2,0.1,0.3c0,0.1,0.1,0.3,0.1,0.4c-0.4,0.3-0.3,0.8-0.3,1.2c0,1.7-0.1,3.3,0,5
	c0.1,3.6-3.2,6.3-6.9,5.9c0.3-1,0.2-1.9-0.2-2.8c-0.2-0.5-0.3-1-0.5-1.5c-0.4-0.9-0.3-1.5,0.6-2.1c0.7-0.4,1.4-1,2-1.5
	c1-0.8,1.3-2.1,0.9-3.2c-0.4-1.2-1.4-1.8-2.8-1.9c-1,0-1.9,0-2.9,0c-0.5,0-0.8-0.1-1-0.7c-0.2-0.9-0.6-1.8-0.9-2.7
	c-0.5-1.4-1.5-2.1-2.8-2.1c-1.3,0-2.3,0.7-2.7,2.1c-0.3,0.9-0.6,1.7-0.8,2.6c-0.2,0.6-0.5,0.9-1.1,0.8c-0.9-0.1-1.8,0-2.8,0
	c-1.4,0-2.4,0.8-2.8,1.9c-0.4,1.1,0,2.4,1,3.2c0.6,0.5,1.1,1,1.8,1.3c1.2,0.6,1.3,1.4,0.8,2.5c-0.8,1.7-1.2,3.5,0.1,5.2
	c-0.2,0.3-0.5,0.3-0.8,0.3c-2.4,0-4.8,0.1-7.2-0.2c-0.8-0.1-0.7-0.5-0.7-1C29.5,101.8,29.5,99.4,29.5,97.1z"/>
<path class="st1" d="M106.2,53.3c2.9-2.7,5.9-5.2,7-9.2c1.3-4.6,0.5-8.8-2.7-12.5c-2.4-2.8-5.2-5.3-7.7-7.9
	c-0.3-0.3-0.8-0.6-0.7-1.2c2.1,1,3.9,2.3,5.5,3.9c6,5.9,11.9,11.9,17.9,17.9c0.3,0.3,0.7,0.5,0.2,1.1c-4.6,4.5-9.1,9.1-13.5,13.6
	C110.1,57,108.2,55.2,106.2,53.3z"/>
<path class="st1" d="M57.7,23.6c1.2-0.6,1.4-1.5,1-2.7c-0.2-0.8-0.2-1.1,0.8-1.1c7.5,0,15.1,0,22.6,0c1,0,1,0.4,0.9,1.1
	c-2.2,9-13,12.7-20.2,6.7c-0.9-0.8-1.8-1-2.8-0.3C59.1,26.2,58.4,24.9,57.7,23.6z"/>
<path class="st10" d="M15.5,117.5c2.2,0.3,4.3,0.4,6.5,0.8c1.2,0.2,2.4,0.2,3.7,0.3c2.7,0.4,5.4,0.2,8.2,0.3c2.8,0.1,5.7,0,8.5-0.1
	c3.8-0.1,7.5-0.5,11.3-1c3.6-0.5,7.1-1.1,10.6-1.9c2.4-0.6,3.7-2.9,3-5.2c-0.1-0.4-0.2-0.8-0.8-0.9c1.1-0.5,2-0.3,2.9,0.6
	c1.5,1.4,3,2.7,4.6,4.1c0.8,0.7,1.3,1.6,1,2.6c-0.3,1.1-1.1,1.6-2.2,1.8c-10.1,2.2-20.3,3.1-30.7,2.9c-8.3-0.2-16.5-1.2-24.6-2.9
	C16.5,118.8,15.8,118.4,15.5,117.5z"/>
<path class="st1" d="M92.6,79.6c0-8.4,0-16.8,0-25.3c0-1.5,0.5-2.3,1.9-2.9c1.1-0.5,2.3-0.2,3.3,0.7c0.7,0.7,1.4,1.4,2.2,2.1
	c0,5,0,10,0.1,15c0,0.5-0.2,0.7-0.6,1c-2.9,2-4.7,4.7-5,8.2C94.3,79.8,93.6,79.8,92.6,79.6z"/>
<path class="st1" d="M29.5,97.1c0,2.3,0,4.6,0,6.9c0,0.5-0.1,0.9,0.7,1c2.4,0.3,4.8,0.2,7.2,0.2c0.3,0,0.6,0,0.8-0.3
	c1.4,0.7,2.8,0.8,4.1-0.2c1.6,0.5,3.2,0,4.8-0.2c2.4,1.5,3.6,1.3,5.1-0.7c3.8,0.4,7.1-2.2,6.9-5.9c-0.1-1.7,0-3.3,0-5
	c0-0.4-0.2-0.9,0.3-1.2c0.9,2,1,4.2,1.1,6.3c0.1,2.7,0,5.3,0,8c0,0.7-0.1,1-0.9,1.1c-5.9,0.7-11.8,1-17.7,0.9c-1.2,0-2,0.4-2.2,1.7
	c-1.5-0.1-3.1-0.2-4.6-0.3c-0.1-1.2-0.7-1.8-2-1.9c-1.1-0.1-2.1-0.3-3.2-0.4c-0.4,0-0.6-0.1-0.6-0.6
	C29.4,103.4,29.2,100.3,29.5,97.1z"/>
<path class="st9" d="M57.7,23.6c0.7,1.3,1.4,2.6,2.4,3.7c-0.8,1.3-0.7,1.9,0.4,2.9c9.6,8,23.8,2.8,26.1-9.5c0.2-1.3,1.1-0.8,1.8-0.9
	c1,0,0.5,0.8,0.4,1.2c-0.9,7.2-7.3,13.7-14.5,15C64.2,37.7,55.2,31.6,53,21.5c0-0.2-0.1-0.3-0.1-0.4c0.1-0.4-0.6-1.1,0.4-1.3
	c1.4-0.2,1.7,0,1.9,1C55.5,23.2,56.1,23.7,57.7,23.6z"/>
<path class="st1" d="M60.4,85.2c4.3,2.7,6.4,6.6,6.5,11.6c0.1,2.8,0,5.6,0,8.4c0,0.3,0.2,0.9-0.4,0.9c-0.8,0.1-1.5,0.4-2.3,0.2
	c-0.1,0-0.1-0.5-0.1-0.7c0-1.7,0-3.4,0-5.1C64.3,95.1,63.6,89.9,60.4,85.2z"/>
<path class="st1" d="M24,106.2c-0.2,0-0.5-0.1-0.7-0.1c0-3.5,0-7,0-10.5c0.3-4.5,2.6-7.9,6.3-10.4c0.2,0.1,0.2,0.2,0.1,0.3
	c-2.7,3.9-3.7,8.4-3.8,13.1c0,2.3,0,4.7,0,7c0,0.8-0.2,1-1,0.8C24.7,106.1,24.3,106.2,24,106.2z"/>
<path class="st1" d="M75,110.9c2.7-0.3,5-1.5,7.3-2.8c1.2-0.7,2.3-1.6,3.4-2.5c-0.2,2.6-0.4,5.1-0.6,7.7c0,0.7-0.3,1-1.1,1
	c-1.8-0.1-3.6,0-5.4,0c-0.6,0-0.9-0.1-1.2-0.6C76.9,112.4,75.8,111.8,75,110.9z"/>
<path class="st9" d="M45,79.6c-0.7,0-1.4,0.1-2.1,0c-0.4,0-1,0.4-1.1-0.3c-0.1-0.7-0.1-1.6,0.8-1.8c1.6-0.3,3.3-0.3,4.9,0
	c0.9,0.2,0.8,1.1,0.8,1.8c0,0.4-0.4,0.3-0.6,0.3C46.8,79.7,45.9,79.6,45,79.6z"/>
<path class="st30" d="M100,74.2c0,1.8,0,3.3,0,4.9c0,1-0.8,0.5-1.2,0.5c-0.8,0.2-1.2,0-1-1.1C98.2,77,98.8,75.7,100,74.2z"/>
<path class="st31" d="M23.3,95.6c0,3.5,0,7,0,10.5c-0.1-0.1-0.2-0.2-0.2-0.3c0-3.3,0-6.6,0-9.9C23.2,95.8,23.2,95.7,23.3,95.6z"/>
<path class="st31" d="M24,106.2c0.3,0,0.7-0.1,0.9,0.2C24.6,106.5,24.3,106.3,24,106.2z"/>
<path class="st32" d="M59.5,91.4c0-0.1-0.1-0.2-0.1-0.3C59.4,91.2,59.5,91.3,59.5,91.4z"/>
<path class="st33" d="M61.4,54.9c1.3,0,2.9,0.5,3.7-0.1c0.8-0.6,0.9-2.2,1.3-3.4c0.3-1,0.6-2,1-3c0.6-1.6,1.9-2.6,3.4-2.6
	c1.6,0,2.9,0.9,3.5,2.6c0.7,2,1.3,3.9,1.9,5.9c0.2,0.6,0.4,0.8,1,0.8c2,0,3.9,0,5.9,0c2,0,3.3,0.9,3.9,2.6c0.5,1.6,0,3.1-1.6,4.3
	c-1.5,1.1-3,2.2-4.5,3.2c-0.7,0.5-0.9,0.9-0.6,1.8c0.7,1.9,1.3,3.8,1.9,5.7c0.5,1.6,0,3.1-1.3,4.1c-1.3,0.9-2.8,1-4.2,0
	c-1.6-1.1-3.2-2.2-4.7-3.4c-0.9-0.7-1.4-0.8-2.3,0c-1.4,1.1-2.9,2.2-4.4,3.2c-1.6,1.1-3.2,1.2-4.6,0.1c-1.3-1-1.8-2.5-1.2-4.3
	c0.6-1.9,1.2-3.8,1.9-5.7c0.2-0.6,0.1-0.9-0.4-1.3c-1.6-1.1-3.1-2.2-4.7-3.4c-1.7-1.2-2.2-2.6-1.7-4.3c0.5-1.8,1.9-2.7,4-2.7
	C59.5,54.9,60.4,54.9,61.4,54.9C61.4,54.9,61.4,54.9,61.4,54.9z M58,58.4c0,0.1,0,0.2-0.1,0.3c0.2,0.2,0.4,0.3,0.6,0.5
	c1.7,1.3,3.5,2.5,5.2,3.8c1.5,1.1,1.8,2,1.2,3.8c-0.4,1.2-0.8,2.5-1.2,3.7c-0.3,1.1-0.8,2.1-1,3.5c2-1.5,3.8-2.8,5.7-4.1
	c2.1-1.5,2.7-1.5,4.8,0c1.8,1.3,3.7,2.6,5.5,4c0.2-0.3,0.1-0.5,0-0.8c-0.7-2.1-1.4-4.2-2.1-6.3C76.2,65,76.5,64.1,78,63
	c1.8-1.3,3.5-2.6,5.3-3.9c0.2-0.1,0.5-0.2,0.4-0.7c-2.4,0-4.9,0-7.3,0c-1.7,0-2.5-0.6-3.1-2.2c-0.7-2-1.3-4-2-6
	c-0.1-0.3-0.1-0.8-0.6-1c-0.7,2.3-1.5,4.5-2.2,6.8c-0.6,1.8-1.4,2.4-3.3,2.4c-0.7,0-1.4,0-2.1,0C61.5,58.4,59.8,58.4,58,58.4z"/>
<path class="st34" d="M115.3,96.3c3,1.3,3.3,3.9,0.7,5.9c-0.1,0.1-0.3,0.2-0.4,0.4c-2.5,1.6-2.5,1.6-1.6,4.4
	c0.2,0.5,0.4,1.1,0.5,1.7c0.3,1.3-0.2,2.4-1.2,3.1c-1,0.7-2.2,0.8-3.3,0.1c-1-0.6-2-1.3-2.9-2.1c-0.6-0.5-1-0.4-1.6,0
	c-0.8,0.7-1.7,1.3-2.6,1.9c-1.2,0.8-2.6,0.8-3.7,0c-1-0.8-1.4-2-1-3.4c0.3-1.1,0.7-2.2,1.1-3.3c0.2-0.5,0.1-0.8-0.4-1.1
	c-0.9-0.6-1.8-1.3-2.7-2c-1.2-0.9-1.6-2.1-1.2-3.4c0.5-1.4,1.5-2.1,3.1-2.1c1.1,0,2.2-0.1,3.2,0c0.7,0,0.9-0.2,1.1-0.8
	c0.3-1.1,0.6-2.1,1-3.2c0.5-1.4,1.7-2.2,2.9-2.2c1.3,0,2.4,0.8,2.8,2.1c0.4,1.1,0.8,2.2,1.1,3.3c0.2,0.6,0.5,0.8,1.1,0.8
	C112.6,96.2,113.9,96.3,115.3,96.3z M110.5,108c-0.4-1.2-0.7-2.3-1-3.3c-0.4-1.2,0-2.2,1-2.9c0.8-0.6,1.7-1.2,2.8-2
	c-1.3,0-2.3,0-3.3,0c-1.5,0-2.2-0.5-2.7-2c-0.3-0.9-0.6-1.9-1-3.1c-0.4,1.2-0.7,2.1-1,3c-0.5,1.6-1.2,2.1-2.9,2.1
	c-1,0-1.9-0.1-3,0.1c0.5,0.4,0.9,0.6,1.2,0.9c0.4,0.3,0.8,0.6,1.2,0.9c1.3,1,1.5,1.7,1.1,3.3c-0.3,0.9-0.7,1.8-0.8,2.9
	c0.5-0.4,0.9-0.7,1.3-1c0.4-0.3,0.8-0.6,1.2-0.9c1.2-0.8,2.1-0.8,3.3,0C108.7,106.6,109.5,107.2,110.5,108z"/>
<path class="st33" d="M52.4,103.9c-1.5,2-2.7,2.2-5.1,0.7c-2.2-1.8-2.2-1.8-4.3-0.2c-0.2,0.1-0.3,0.3-0.5,0.4
	c-1.3,1-2.7,0.9-4.1,0.2c-1.3-1.7-0.9-3.5-0.1-5.2c0.5-1.1,0.4-1.9-0.8-2.5c-0.6-0.3-1.2-0.8-1.8-1.3c-1-0.8-1.4-2.1-1-3.2
	c0.4-1.2,1.4-1.9,2.8-1.9c0.9,0,1.8,0,2.8,0c0.7,0,1-0.2,1.1-0.8c0.2-0.9,0.5-1.8,0.8-2.6c0.5-1.3,1.4-2.1,2.7-2.1
	c1.3,0,2.3,0.7,2.8,2.1c0.3,0.9,0.6,1.8,0.9,2.7c0.1,0.6,0.4,0.7,1,0.7c1,0,1.9,0,2.9,0c1.3,0,2.3,0.7,2.8,1.9
	c0.4,1.1,0.1,2.4-0.9,3.2c-0.6,0.5-1.3,1.1-2,1.5c-1,0.5-1.1,1.2-0.6,2.1c0.2,0.5,0.3,1,0.5,1.5C52.6,102,52.7,102.9,52.4,103.9z
	 M48.4,101c-0.1-1.3-1.1-2.5-0.7-3.8c0.4-1.3,1.9-1.7,2.7-2.7c-1.3-0.2-2.6,0.3-3.8-0.5c-1.1-0.8-1-2.3-1.9-3.7
	c-0.3,3.5-2.1,4.7-5.4,4.2c2.7,1.5,3.9,3.3,1.9,6.4c1.6-0.4,2.3-1.7,3.6-1.7C46.4,99.1,47.2,100.3,48.4,101z"/>
<path class="st35" d="M42.5,104.8c0.2-0.1,0.3-0.3,0.5-0.4c2.2-1.6,2.2-1.6,4.3,0.2C45.7,104.8,44.1,105.3,42.5,104.8z"/>
<path class="st36" d="M58,58.4c1.7,0,3.4,0,5.1,0c0.7,0,1.4,0,2.1,0c1.9,0,2.7-0.6,3.3-2.4c0.7-2.3,1.5-4.5,2.2-6.8
	c0.5,0.2,0.5,0.6,0.6,1c0.7,2,1.3,4,2,6c0.5,1.6,1.3,2.2,3.1,2.2c2.4,0,4.9,0,7.3,0c0.1,0.5-0.2,0.6-0.4,0.7
	c-1.8,1.3-3.5,2.6-5.3,3.9c-1.5,1.1-1.8,2-1.3,3.8c0.7,2.1,1.4,4.2,2.1,6.3c0.1,0.2,0.2,0.4,0,0.8c-1.8-1.3-3.7-2.6-5.5-4
	c-2.1-1.5-2.7-1.5-4.8,0c-1.8,1.3-3.7,2.6-5.7,4.1c0.2-1.4,0.7-2.4,1-3.5c0.4-1.2,0.8-2.5,1.2-3.7c0.6-1.8,0.3-2.7-1.2-3.8
	c-1.7-1.3-3.5-2.5-5.2-3.8c-0.2-0.2-0.4-0.3-0.6-0.5C58,58.6,58,58.5,58,58.4z"/>
<path class="st37" d="M110.5,108c-1-0.7-1.8-1.3-2.6-1.9c-1.2-0.8-2.1-0.8-3.3,0c-0.4,0.3-0.8,0.6-1.2,0.9c-0.4,0.3-0.8,0.6-1.3,1
	c0.1-1.1,0.5-2,0.8-2.9c0.4-1.6,0.2-2.3-1.1-3.3c-0.4-0.3-0.8-0.6-1.2-0.9c-0.4-0.3-0.7-0.5-1.2-0.9c1.1-0.2,2-0.1,3-0.1
	c1.7,0,2.4-0.5,2.9-2.1c0.3-0.9,0.6-1.8,1-3c0.4,1.2,0.7,2.2,1,3.1c0.5,1.4,1.2,2,2.7,2c1,0,2,0,3.3,0c-1.1,0.8-1.9,1.4-2.8,2
	c-1,0.7-1.4,1.7-1,2.9C109.8,105.7,110.1,106.7,110.5,108z"/>
<path class="st37" d="M48.4,101c-1.3-0.7-2.1-1.8-3.5-1.9c-1.3,0-2.1,1.3-3.6,1.7c2-3,0.8-4.9-1.9-6.4c3.3,0.5,5.1-0.7,5.4-4.2
	c0.9,1.4,0.7,2.8,1.9,3.7c1.1,0.8,2.5,0.3,3.8,0.5c-0.8,1-2.3,1.3-2.7,2.7C47.3,98.5,48.3,99.6,48.4,101z"/>
</svg>
