<?xml version="1.0" encoding="utf-8"?>
<!-- Generator: Adobe Illustrator 24.2.3, SVG Export Plug-In . SVG Version: 6.00 Build 0)  -->
<svg version="1.1" id="Layer_1" xmlns="http://www.w3.org/2000/svg" xmlns:xlink="http://www.w3.org/1999/xlink" x="0px" y="0px"
	 viewBox="0 0 141.7 141.7" style="enable-background:new 0 0 141.7 141.7;" xml:space="preserve">
<style type="text/css">
	.st0{fill:#030303;}
	.st1{fill:#C5D8EA;}
	.st2{fill:#1B1B1B;}
	.st3{fill:#070808;}
	.st4{fill:#FFFFFF;}
	.st5{fill:#292B2C;}
	.st6{fill:#050505;}
	.st7{fill:#020202;}
	.st8{fill:#E3EDF5;}
	.st9{fill:#DE1F26;}
	.st10{fill:#A21D21;}
	.st11{fill:#060707;}
	.st12{fill:#060607;}
	.st13{fill:#E0E9F1;}
	.st14{fill:#080809;}
	.st15{fill:#F6F5EF;}
	.st16{fill:#7D8D9B;}
	.st17{fill:#E1E0CF;}
	.st18{fill:#26313E;}
	.st19{fill:#09080A;}
	.st20{fill:#0B0B0C;}
	.st21{fill:#040906;}
	.st22{fill:#0B0B04;}
	.st23{fill:#4B616B;}
	.st24{fill:#556F7B;}
	.st25{fill:#546E7A;}
	.st26{fill:#617D8C;}
	.st27{fill:#CED1D2;}
	.st28{fill:#EDEFF0;}
	.st29{fill:#090708;}
	.st30{fill:#BAE3ED;}
	.st31{fill:#62A8B7;}
	.st32{fill:#6FC2D5;}
	.st33{fill:#0A0B07;}
	.st34{fill:#0D0505;}
	.st35{fill:#7CCDDC;}
	.st36{fill:#F1DA44;}
	.st37{fill:#EFD944;}
	.st38{fill:none;stroke:#090708;stroke-width:2.8346;stroke-miterlimit:10;}
</style>
<path class="st0" d="M31.1,123.6c0-31.6,0-63.3,0-94.9c0-1.1,0.2-1.4,1.3-1.4c24.4,0,48.7,0,73.1,0c0.8,0,1.3,0.2,1.8,0.8
	c6.4,6.4,12.8,12.9,19.3,19.3c0.3,0.3,0.5,0.5,0.8,0.7c0,0.1,0,0.3,0,0.4c-0.4,0.3-0.2,0.8-0.2,1.1c0,18.5,0,37,0,55.5
	c0,0.4-0.1,0.8,0.2,1.1c0,0.1,0,0.3,0,0.4c-0.5,0-1,0-1.5,0c-0.5,0-1,0-1.5-0.1c-0.1-0.1-0.1-0.1-0.2-0.2c0-2.1,0-4.1,0-6.2
	c0-16.3,0-32.6,0-48.9c0-0.8-0.2-1.1-1-1c-2.5,0.1-5,0-7.5,0c-1.6,0-1.6,0-1.7-1.5c0.1-1.8,0.1-1.8,1.9-1.8c0.8,0,1.6,0,2.4,0
	c1.1,0,2.2,0,3.1,0c-0.9-1-1.9-2.1-2.8-3.1c-2.5-2.6-5.1-5.2-7.7-7.7c-1.1-1-2.2-2.1-3.3-3.1c0,4.2,0,8.5,0,12.7
	c0,1,0.2,1.3,1.2,1.3c1.8-0.1,1.8,0,1.9,1.7c0,0.1-0.1,0.3,0,0.4c0.2,0.9-0.2,1.2-1.1,1.1c-1.4-0.1-2.9-0.1-4.3,0
	c-0.9,0.1-1.1-0.3-1-1.1c0-6.2,0-12.4,0-18.6c0-0.2,0-0.2-0.2-0.2c-0.3,0-0.5,0-0.8,0c-21.6,0-43.1,0-64.7,0c-0.3,0-0.5,0-0.8,0
	c-0.7,0-1.4,0-2.1-0.1c-1.1-0.2-1.2,0.3-1.2,1.3c0,30.1,0,60.2,0,90.2c0,0.5,0,1,0,1.4C33.3,123.6,32.2,123.6,31.1,123.6z"/>
<path class="st1" d="M34.4,123.6c0-0.5,0-1,0-1.4c0-30.1,0-60.2,0-90.2c0-1,0.2-1.4,1.2-1.3c0.7,0.1,1.4,0,2.1,0.1
	c0,1.1,0,2.2,0,3.3c0,1.1,0,2.2,0,3.3c0,27.3,0,54.7,0,82c0,1,0.4,1,1.2,1c28.4,0,56.7,0,85.1,0c0,1,0.1,2.1,0.1,3.1
	c0,0.1,0,0.1,0,0.2C94.2,123.6,64.3,123.6,34.4,123.6z"/>
<path class="st0" d="M124.1,123.3c0-1-0.1-2.1-0.1-3.1c0-0.5,0-1.1,0-1.6c0-1.8,0-1.8,1.8-2c0.5,0,1,0.1,1.5,0.1c0,2.2,0,4.4,0,6.6
	C126.3,123.3,125.2,123.3,124.1,123.3z"/>
<path class="st2" d="M127.4,106.4c-0.4-0.3-0.2-0.8-0.2-1.1c0-18.5,0-37,0-55.5c0-0.4-0.1-0.8,0.2-1.1
	C127.4,67.8,127.4,87.1,127.4,106.4z"/>
<path class="st3" d="M127.4,110.1c0,1.1,0,2.2,0,3.3c-0.5,0-1,0-1.5,0c-1.8-0.1-1.8-0.1-1.8-1.9c0-1.4,0-1.4,1.8-1.5
	C126.4,110.1,126.9,110.1,127.4,110.1z"/>
<path class="st4" d="M127.4,110.1c-0.5,0-1-0.1-1.5-0.1c0-1.1,0-2.1,0-3.2c0.5,0,1,0,1.5,0C127.4,107.9,127.4,109,127.4,110.1z"/>
<path class="st4" d="M125.9,113.4c0.5,0,1,0,1.5,0c0,1.1,0,2.2,0,3.3c-0.5,0-1-0.1-1.5-0.1C125.9,115.6,125.9,114.5,125.9,113.4z"/>
<path class="st5" d="M124.1,123.3c1.1,0,2.2,0,3.3,0c-0.6,0.5-1.3,0.1-2,0.2c-0.4,0.1-0.9,0-1.3,0
	C124.1,123.5,124.1,123.4,124.1,123.3z"/>
<path class="st6" d="M31.1,17.3c0-2,0-4,0-5.9c0-0.6,0.2-0.8,0.8-0.8c2.6,0,2.6-0.1,2.6,2.5c0,3.4,0,6.8,0,10.1
	c0,0.7-0.1,0.9-0.8,0.9c-2.5,0-2.5,0-2.5-2.5C31.1,20.1,31.1,18.7,31.1,17.3z"/>
<path class="st7" d="M21.1,27.3c2,0,4,0,5.9,0c0.6,0,0.8,0.1,0.8,0.7c0,2.6,0.1,2.6-2.5,2.6c-3.3,0-6.7,0-10,0c-0.7,0-1-0.1-1-0.9
	c0-2.4,0-2.4,2.5-2.4C18.2,27.3,19.7,27.3,21.1,27.3z"/>
<path class="st8" d="M125.9,113.4c0,1.1,0,2.1,0,3.2c-1.8,0.1-1.8,0.1-1.8,2c0,0.5,0,1.1,0,1.6c-28.4,0-56.7,0-85.1,0
	c-0.8,0-1.2-0.1-1.2-1c0-27.3,0-54.7,0-82c0.7,0,1.5,0,2.2,0c0.9,0.1,1.2-0.2,1.1-1.1c-0.1-2.2,0-2.2-2.2-2.2c-0.4,0-0.7,0-1.1,0
	c0-1.1,0-2.2,0-3.3c0.3,0,0.5,0,0.8,0c21.6,0,43.1,0,64.7,0c0.3,0,0.5,0,0.8,0c0.1,0.1,0.1,0.1,0.2,0.2c0,6.2,0,12.4,0,18.6
	c0,0.8,0.1,1.1,1,1.1c1.4-0.1,2.9-0.1,4.3,0c0.9,0.1,1.3-0.2,1.1-1.1c0-0.1,0-0.3,0-0.4c1.1,0,2.2,0,3.2,0c0.1,1.5,0.1,1.5,1.7,1.5
	c2.5,0,5,0,7.5,0c0.8,0,1,0.2,1,1c0,16.3,0,32.6,0,48.9c0,2.1,0,4.1,0,6.2c0,0.2,0,0.2,0.2,0.2c0.5,0,1,0,1.5,0.1c0,1.1,0,2.1,0,3.2
	c-1.8,0.1-1.8,0.1-1.8,1.5C124.1,113.3,124.1,113.3,125.9,113.4z M57.6,51.5c0-1.4,0-2.9,0-4.3c0-3.4-2.6-6.2-5.9-6.6
	c-3.4-0.4-6.6,1.8-7.2,5.2c-0.6,3.6-0.1,7.3-0.2,10.9c0,0.4,0.2,0.4,0.5,0.4c2.7,0.3,2.8,0.2,2.8-2.4c0,0,0-0.1,0-0.1
	c-0.1-0.7,0.2-0.8,0.9-0.8c1.6,0,3.2,0,4.8,0c0.7,0,0.9,0.1,0.9,0.9c0,2.5,0,2.5,2.5,2.5c0.6,0,0.8-0.2,0.8-0.8
	C57.6,54.7,57.6,53.1,57.6,51.5z M64,40.6c-3.1,0-3.1,0-3,2.6c0,0,0,0.1,0,0.1c-0.1,0.5,0.2,0.6,0.6,0.6c1.3,0,2.6,0,4,0
	c1.3,0,2,0.6,2,1.7c0,1-0.8,1.7-2,1.6c-1.2-0.1-1.5,0.4-1.4,1.5c0,0.1,0,0.3,0,0.4c-0.2,1.2,0.2,1.6,1.4,1.5
	c1.2-0.1,1.9,0.7,1.9,1.7c0,1-0.7,1.6-1.9,1.6c-1.3,0-2.6,0-4,0c-0.2,0-0.6-0.1-0.7,0.2c-0.1,1-0.1,1.9,0,2.9c0,0.4,0.5,0.2,0.7,0.2
	c1.4,0,2.8,0,4.2,0c2,0,3.4-0.9,4.3-2.5c1-1.7,1-3.5-0.2-5.2c-0.3-0.5-0.3-0.7,0-1.1c1.1-1.7,1.1-3.5,0.1-5.2
	c-0.9-1.7-2.4-2.5-4.3-2.5C65.2,40.6,64.6,40.6,64,40.6z M44.4,35.5c0,1.7,0,1.7,1.1,1.7c2.2,0,2.2,0,2.2-1.3c0-2.1,0-2.1-1.3-2.1
	C44.4,33.9,44.4,33.9,44.4,35.5z"/>
<path class="st9" d="M113.9,49c-1.1,0-2.2,0-3.2,0c-0.1-1.8-0.1-1.8-1.9-1.7c-1,0.1-1.2-0.3-1.2-1.3c0.1-4.2,0-8.5,0-12.7
	c1.1,1.1,2.2,2.1,3.3,3.1c0,2.2,0,4.5,0,6.7c0,0.8,0.2,1,1,1c2.2,0,4.5,0,6.7,0c0.9,1,1.9,2.1,2.8,3.1c-0.9,0-2,0-3.1,0
	c-0.8,0-1.6,0-2.4,0C114,47.2,114,47.2,113.9,49z"/>
<path class="st10" d="M118.6,44.1c-2.2,0-4.5,0-6.7,0c-0.8,0-1-0.2-1-1c0-2.2,0-4.5,0-6.7C113.5,38.9,116.1,41.5,118.6,44.1z"/>
<path class="st1" d="M104.2,30.9c-0.1-0.1-0.1-0.1-0.2-0.2C104.1,30.6,104.2,30.7,104.2,30.9z"/>
<path class="st2" d="M124.3,106.8c-0.2,0-0.2,0-0.2-0.2C124.2,106.6,124.2,106.7,124.3,106.8z"/>
<path class="st0" d="M37.8,34c0.4,0,0.7,0,1.1,0c2.2,0,2.2,0,2.2,2.2c0,0.9-0.2,1.2-1.1,1.1c-0.7-0.1-1.5,0-2.2,0
	C37.8,36.1,37.8,35.1,37.8,34z"/>
<path class="st11" d="M57.6,51.5c0,1.6,0,3.2,0,4.8c0,0.6-0.2,0.8-0.8,0.8c-2.5,0-2.5,0.1-2.5-2.5c0-0.8-0.3-0.9-0.9-0.9
	c-1.6,0-3.2,0-4.8,0c-0.6,0-1,0.1-0.9,0.8c0,0,0,0.1,0,0.1c0,2.6-0.2,2.7-2.8,2.4c-0.3,0-0.5,0-0.5-0.4c0.1-3.6-0.4-7.3,0.2-10.9
	c0.5-3.4,3.8-5.6,7.2-5.2c3.3,0.4,5.8,3.2,5.9,6.6C57.6,48.6,57.6,50.1,57.6,51.5z M50.9,50.5c0.9,0,1.8,0,2.8,0
	c0.5,0,0.7-0.1,0.6-0.6c0-1,0-2,0-3c-0.1-1.6-1.3-2.8-3-3c-1.5-0.2-3,0.8-3.4,2.3c-0.3,1-0.1,2.1-0.2,3.2c-0.1,0.8,0.1,1.2,1,1.1
	C49.5,50.4,50.2,50.5,50.9,50.5z"/>
<path class="st12" d="M64,40.6c0.6,0,1.3,0,1.9,0c2,0,3.4,0.8,4.3,2.5c1,1.7,1,3.5-0.1,5.2c-0.3,0.4-0.3,0.7,0,1.1
	c1.1,1.7,1.1,3.5,0.2,5.2c-0.9,1.7-2.4,2.6-4.3,2.5c-1.4,0-2.8,0-4.2,0c-0.3,0-0.7,0.2-0.7-0.2c-0.1-1-0.1-1.9,0-2.9
	c0-0.3,0.4-0.2,0.7-0.2c1.3,0,2.6,0,4,0c1.2,0,1.9-0.6,1.9-1.6c0-1-0.7-1.8-1.9-1.7c-1.2,0.1-1.7-0.3-1.4-1.5c0-0.1,0-0.3,0-0.4
	c-0.2-1.1,0.1-1.6,1.4-1.5c1.2,0.1,1.9-0.6,2-1.6c0-1-0.7-1.7-2-1.7c-1.3,0-2.6,0-4,0c-0.4,0-0.7-0.1-0.6-0.6c0,0,0-0.1,0-0.1
	C60.8,40.6,60.8,40.6,64,40.6z"/>
<path class="st0" d="M44.4,35.5c0-1.6,0-1.6,2.1-1.6c1.3,0,1.3,0,1.3,2.1c0,1.3,0,1.3-2.2,1.3C44.4,37.3,44.4,37.3,44.4,35.5z"/>
<path class="st13" d="M50.9,50.5c-0.7,0-1.5-0.1-2.2,0c-0.9,0.1-1.1-0.3-1-1.1c0.1-1.1-0.1-2.1,0.2-3.2c0.5-1.5,1.9-2.5,3.4-2.3
	c1.7,0.2,2.9,1.4,3,3c0.1,1,0,2,0,3c0,0.5-0.2,0.6-0.6,0.6C52.8,50.5,51.9,50.5,50.9,50.5z"/>
</svg>
