<?xml version="1.0" encoding="utf-8"?>
<!-- Generator: Adobe Illustrator 24.2.3, SVG Export Plug-In . SVG Version: 6.00 Build 0)  -->
<svg version="1.1" id="Layer_1" xmlns="http://www.w3.org/2000/svg" xmlns:xlink="http://www.w3.org/1999/xlink" x="0px" y="0px"
	 viewBox="0 0 141.7 141.7" style="enable-background:new 0 0 141.7 141.7;" xml:space="preserve">
<style type="text/css">
	.st0{fill:#030303;}
	.st1{fill:#C5D8EA;}
	.st2{fill:#1B1B1B;}
	.st3{fill:#070808;}
	.st4{fill:#FFFFFF;}
	.st5{fill:#292B2C;}
	.st6{fill:#050505;}
	.st7{fill:#020202;}
	.st8{fill:#E3EDF5;}
	.st9{fill:#DE1F26;}
	.st10{fill:#A21D21;}
	.st11{fill:#060707;}
	.st12{fill:#060607;}
	.st13{fill:#E0E9F1;}
	.st14{fill:#080809;}
	.st15{fill:#F6F5EF;}
	.st16{fill:#7D8D9B;}
	.st17{fill:#E1E0CF;}
	.st18{fill:#26313E;}
	.st19{fill:#09080A;}
	.st20{fill:#0B0B0C;}
	.st21{fill:#040906;}
	.st22{fill:#0B0B04;}
	.st23{fill:#4B616B;}
	.st24{fill:#556F7B;}
	.st25{fill:#546E7A;}
	.st26{fill:#617D8C;}
	.st27{fill:#CED1D2;}
	.st28{fill:#EDEFF0;}
	.st29{fill:#090708;}
	.st30{fill:#BAE3ED;}
	.st31{fill:#62A8B7;}
	.st32{fill:#6FC2D5;}
	.st33{fill:#0A0B07;}
	.st34{fill:#0D0505;}
	.st35{fill:#7CCDDC;}
	.st36{fill:#F1DA44;}
	.st37{fill:#EFD944;}
	.st38{fill:none;stroke:#090708;stroke-width:2.8346;stroke-miterlimit:10;}
</style>
<path class="st23" d="M45.3,126.9c-2.6-1.6-2.9-2.9-2.1-6.4c1-4.5,3.8-7.5,8.2-9.2c0.3-0.1,0.5-0.2,0.8-0.4c1.4-0.1,2.8-0.4,4.2-0.4
	c4.8-0.1,9.7,0,14.5,0c0,5.5,0,10.9,0,16.4C62.4,126.9,53.8,126.9,45.3,126.9z"/>
<path class="st24" d="M70.9,126.9c0-5.5,0-10.9,0-16.4c0,0,0,0,0,0c6.2,0.2,12.4-0.4,18.6,0.4c0.6,0.3,1.3,0.5,1.9,0.8
	c4.4,2.1,6.9,5.7,7.5,10.5c0.3,2.4-0.3,3.4-2.6,4.7C87.8,126.9,79.4,126.9,70.9,126.9z"/>
<g>
	<path class="st9" d="M52.2,103.7c-2.1,0-4.2,0.1-6.2-0.2c-4.9-0.5-7.8-3.8-7.8-8.8c0-8.6,0-17.2,0-25.8c0-15,0-30,0-45
		c0-2.7,0.7-5.2,2.9-7c1.3-1.2,2.9-2,4.6-2c8.4,0,16.8,0,25.3,0c0,3.8,0,7.7,0,11.5c-5.6,0-11.3,0-16.9,0c-2.6,0-4.1,1.4-4.1,4
		c0,19.1,0,38.3,0,57.4c0,2.6,1.3,4,4,4c5.7,0,11.4,0,17.1,0c0,3.9,0,7.8,0,11.7c-0.5,0-0.9,0.1-1.4,0.1
		C63.7,103.7,58,103.7,52.2,103.7z"/>
	<path class="st10" d="M70.9,103.6c0-3.9,0-7.8,0-11.7c0,0,0-0.1,0-0.1c5.6,0,11.2,0,16.8,0c2.9,0,4.2-1.3,4.2-4.2c0-19,0-38,0-57
		c0-0.3,0-0.6,0-0.9c-0.1-1.6-1.2-2.8-2.8-3.2c-0.4-0.3-0.8-0.2-1.3-0.2c-5.6,0-11.3,0-16.9,0c0-3.8,0-7.7,0-11.5
		c8.3,0,16.7-0.1,25,0c4.1,0,7.5,3.6,7.6,7.8c0.1,4,0,8,0,12c0,20.1,0,40.2,0,60.3c0,4-2.5,7.6-6.5,8.4c-2,0.4-4.1,0.1-6.1,0.2
		c-0.5,0-1-0.1-1.4,0.2C83.3,103.7,77.1,103.7,70.9,103.6L70.9,103.6z"/>
</g>
<path class="st25" d="M52.2,103.7c5.8,0,11.5,0,17.3,0c0.5,0,0.9,0,1.4-0.1c0,0,0,0.1,0,0.1c0,2.3,0,4.5,0,6.8c0,0,0,0,0,0
	c-4.8,0-9.7,0-14.5,0c-1.4,0-2.8,0.3-4.2,0.4C52.2,108.5,52.2,106.1,52.2,103.7z"/>
<path class="st26" d="M70.9,110.5c0-2.3,0-4.5,0-6.8c6.2,0,12.4,0,18.6,0c0,2.4,0,4.8,0,7.2C83.3,110,77.1,110.7,70.9,110.5z"/>
<path class="st27" d="M70.9,26.4c5.6,0,11.3,0,16.9,0c0.4,0,0.9-0.1,1.3,0.2c-5.5,0-11.1,0-16.6,0c-1.5,0-1.5,0-1.5,1.5
	c0,21.2,0,42.4,0,63.7c0,0,0,0.1,0,0.1c-5.7,0-11.4,0-17.1,0c-2.6,0-4-1.3-4-4c0-19.1,0-38.3,0-57.4c0-2.6,1.4-4,4.1-4
	C59.6,26.5,65.3,26.4,70.9,26.4z"/>
<path class="st28" d="M70.9,91.8c0-21.2,0-42.4,0-63.7c0-1.5,0-1.5,1.5-1.5c5.5,0,11.1,0,16.6,0c1.7,0.4,2.7,1.5,2.8,3.2
	c0,0.3,0,0.6,0,0.9c0,19,0,38,0,57c0,2.9-1.3,4.2-4.2,4.2C82.1,91.9,76.5,91.8,70.9,91.8z"/>
<g>
	<path class="st38" d="M103.5,34.7c0-4,0-8,0-12c-0.1-4.1-3.5-7.7-7.6-7.8c-8.3-0.1-16.7,0-25,0c-8.4,0-16.8-0.1-25.3,0
		c-1.8,0-3.3,0.8-4.6,2c-2.1,1.9-2.9,4.3-2.9,7c0,15,0,30,0,45c0,8.6,0,17.2,0,25.8c0,5,2.9,8.3,7.8,8.8c2.1,0.2,4.1,0.1,6.2,0.2
		c5.8,0,11.5,0,17.3,0c0.5,0,0.9,0,1.4-0.1l0,0.1c6.2,0,12.4,0,18.6,0c0.4-0.3,0.9-0.1,1.4-0.2c2-0.1,4.1,0.2,6.1-0.2
		c4-0.8,6.6-4.4,6.5-8.4C103.5,74.9,103.5,54.8,103.5,34.7z M70.9,91.9c-5.7,0-11.4,0-17.1,0c-2.6,0-4-1.3-4-4c0-19.1,0-38.3,0-57.4
		c0-2.6,1.4-4,4.1-4c5.6,0,11.3,0,16.9,0c5.6,0,11.3,0,16.9,0c0.4,0,0.9-0.1,1.3,0.2c1.7,0.4,2.7,1.5,2.8,3.2c0,0.3,0,0.6,0,0.9
		c0,19,0,38,0,57c0,2.9-1.3,4.2-4.2,4.2C82.1,91.9,76.5,91.8,70.9,91.9C70.9,91.8,70.9,91.9,70.9,91.9 M70.9,103.6L70.9,103.6"/>
</g>
</svg>
